<?xml version="1.0" encoding="UTF-8" standalone="no"?>
<!-- Created with Inkscape (http://www.inkscape.org/) -->
<svg
   xmlns:dc="http://purl.org/dc/elements/1.1/"
   xmlns:cc="http://web.resource.org/cc/"
   xmlns:rdf="http://www.w3.org/1999/02/22-rdf-syntax-ns#"
   xmlns:svg="http://www.w3.org/2000/svg"
   xmlns="http://www.w3.org/2000/svg"
   xmlns:sodipodi="http://inkscape.sourceforge.net/DTD/sodipodi-0.dtd"
   xmlns:inkscape="http://www.inkscape.org/namespaces/inkscape"
   version="1.0"
   width="400.20001"
   height="777.46997"
   id="svg2"
   sodipodi:version="0.32"
   inkscape:version="0.43"
   sodipodi:docname="asclepius.svg"
   sodipodi:docbase="C:\temp">
  <metadata
     id="metadata9">
    <rdf:RDF>
      <cc:Work
         rdf:about="">
        <dc:format>image/svg+xml</dc:format>
        <dc:type
           rdf:resource="http://purl.org/dc/dcmitype/StillImage" />
      </cc:Work>
    </rdf:RDF>
  </metadata>
  <sodipodi:namedview
     inkscape:window-height="553"
     inkscape:window-width="800"
     inkscape:pageshadow="2"
     inkscape:pageopacity="0.0"
     borderopacity="1.0"
     bordercolor="#666666"
     pagecolor="#ffffff"
     id="base"
     inkscape:zoom="0.49776704"
     inkscape:cx="199.38194"
     inkscape:cy="622.24208"
     inkscape:window-x="-4"
     inkscape:window-y="-4"
     inkscape:current-layer="svg2" />
  <defs
     id="defs4" />
  <g
     id="layer1">
    <g
       transform="matrix(2,0,0,2,-483.316,-485.5179)"
       id="g4895">
      <path
         d="M 331.42857,623.07647 C 337.27585,635.76629 344.39598,633.18188 352.14286,623.07647 C 352.14286,623.07647 353.75,603.25504 353.57143,589.50504 C 353.39286,575.75504 351.25,588.25504 351.42857,568.07647 C 351.60714,547.8979 354.28571,508.79075 354.28571,508.79075 L 354.28571,442.36218 C 354.28571,442.36218 355.17857,406.6479 355,376.6479 C 354.82143,346.6479 353.21429,343.96933 353.57143,322.36218 C 353.92857,300.75504 354.82143,307.89789 356.42857,290.21932 C 358.03571,272.54075 360,251.6479 360,251.6479 C 356.37359,239.72933 321.7177,240.1662 317.85714,263.07647 C 317.85714,263.07647 320,276.6479 320.71429,306.6479 C 321.42858,336.6479 318.92858,347.8979 320.71429,383.07647 C 322.5,418.25504 325.89286,414.50504 327.85714,447.36218 C 329.82143,480.21932 328.57143,514.50504 328.57143,514.50504 L 331.42857,580.93361 L 331.42857,623.07647 z "
         style="fill:#000000;fill-opacity:1;fill-rule:evenodd;stroke:#000000;stroke-width:1px;stroke-linecap:butt;stroke-linejoin:miter;stroke-opacity:1"
         id="path1360" />
      <path
         d="M 379.28571,288.79075 C 354.64285,290.75504 318.57143,295.93361 318.57143,295.93361 C 202.09635,317.54694 230.74505,419.87261 320.71429,396.6479 L 355.71429,394.50504 C 403.47223,382.8675 411.5524,446.95225 355.71429,438.79075 L 325,440.93361 C 240.91314,461.72967 249.66372,540.14119 327.14286,529.50504 L 354.28571,525.21932 C 413.85223,523.91508 380.85701,565.66632 352.14286,568.79075 C 352.14286,568.79075 343.92858,568.25504 330.71429,575.93361 C 317.5,583.61218 299.28571,599.50504 299.28571,599.50504 C 285.56187,617.69785 296.87992,614.42303 309.28571,610.21933 C 309.28571,610.21933 318.92857,601.29075 330,595.93361 C 341.07143,590.57647 353.57143,588.79075 353.57143,588.79075 C 421.21761,565.35473 429.14225,510.03777 355.71429,508.07647 L 326.42857,509.50504 C 303.61614,517.95556 256.9628,482.39945 326.42857,464.50504 L 357.14286,463.79075 C 443.82508,460.82712 445.62298,377.62637 355,373.07647 L 318.57143,375.93361 C 278.07153,394.47753 235.51058,344.06402 319.28571,321.6479 C 319.28571,321.6479 340.17857,322.00504 356.42857,321.6479 C 372.67857,321.29075 369.64285,319.14789 384.28571,320.21932 C 398.92857,321.29075 404.98295,331.11837 415,325.93361 C 438.62552,313.70521 458.00437,312.96808 417.14286,288.07647 C 406.23822,281.43369 403.92857,286.82646 379.28571,288.79075 z "
         style="fill:#000000;fill-opacity:1;fill-rule:evenodd;stroke:#000000;stroke-width:1px;stroke-linecap:butt;stroke-linejoin:miter;stroke-opacity:1"
         id="path1364" />
    </g>
  </g>
</svg>
